<?xml version="1.0" standalone="no"?>
<!DOCTYPE svg PUBLIC "-//W3C//DTD SVG 1.1//EN" "http://www.w3.org/Graphics/SVG/1.1/DTD/svg11.dtd">
<svg xmlns="http://www.w3.org/2000/svg"><defs><font id="flaticon" horiz-adv-x="512"><font-face units-per-em="512" ascent="448" descent="-64" x-height="240" cap-height="480"/><missing-glyph horiz-adv-x="512"/><glyph unicode="&#xE000;" glyph-name="accept6" horiz-adv-x="512" d="M398.112 153.936c-59.584 0 -107.888 -48.304 -107.888 -107.888c0 -59.584 48.304 -107.888 107.888 -107.888c59.584 0 107.888 48.304 107.888 107.888 C506 105.632 457.696 153.936 398.112 153.936zM374.96 -20.304l-57.6 57.6l22.624 22.624l34.976 -34.976l76.128 76.128l22.624 -22.624 L374.96 -20.304zM60.672 -2.4V303.056h112.912V415.968h213.792v-246.576c3.536 0.304 7.104 0.544 10.72 0.544c6.528 0 12.896 -0.656 19.152 -1.632V445.84 H154.624L30.784 315.104v-347.392h271.44c-7.36 9.008 -13.488 19.04 -18.112 29.888H60.672zM143.696 390.864v-57.936H88.832L143.696 390.864zM96.496 219.056l253.184 0l0 -33.664l-240 0ZM335.136 152.544H96.496v-33.664h201.632C308.032 132.464 320.624 143.92 335.136 152.544zM96.496 49.376H274.4c0.32 11.68 2.128 22.992 5.472 33.664H96.496V49.376z"/><glyph unicode="&#xE001;" glyph-name="add156" horiz-adv-x="427" d="M80.839111111111 191.54488888889C102.08711111111 174.16533333333 128.05688888889 163.55555555556 156.44444444444 163.55555555556s54.357333333333 10.609777777778 75.605333333333 27.989333333333 C251.10755555556 190.03733333333 267.43466666667 179.14311111111 276.59377777778 163.55555555556h31.260444444444c-8.7608888888889 24.462222222222 -28.416 43.719111111111 -53.162666666667 52.081777777778C273.00977777778 240.24177777778 284.44444444444 271.36 284.44444444444 305.77777777778c0 78.563555555556 -57.315555555556 142.22222222222 -128 142.22222222222 S28.444444444444 384.34133333333 28.444444444444 305.77777777778c0 -34.417777777778 11.463111111111 -65.564444444444 29.752888888889 -90.140444444444C24.462222222222 204.25955555556 0 172.68622222222 0 135.11111111111v-56.888888888889c0 -47.132444444444 38.200888888889 -85.333333333333 85.333333333333 -85.333333333333h142.22222222222v28.444444444444H85.333333333333c-31.431111111111 0 -56.888888888889 25.457777777778 -56.888888888889 56.888888888889v56.888888888889 C28.444444444444 165.00622222222 51.569777777778 189.21244444444 80.839111111111 191.54488888889zM56.888888888889 305.77777777778c0 62.833777777778 44.572444444444 113.77777777778 99.555555555556 113.77777777778C211.42755555556 419.55555555556 256 368.61155555556 256 305.77777777778c0 -62.833777777778 -44.572444444444 -113.77777777778 -99.555555555556 -113.77777777778C101.46133333333 192 56.888888888889 242.944 56.888888888889 305.77777777778zM384 78.222222222222H341.33333333333v42.666666666667c0 7.8506666666667 -6.3715555555556 14.222222222222 -14.222222222222 14.222222222222c-7.8506666666667 0 -14.222222222222 -6.3715555555556 -14.222222222222 -14.222222222222V78.222222222222H270.22222222222C262.37155555556 78.222222222222 256 71.850666666667 256 64 C256 56.149333333333 262.37155555556 49.777777777778 270.22222222222 49.777777777778H312.88888888889v-42.666666666667c0 -7.8506666666667 6.3715555555556 -14.222222222222 14.222222222222 -14.222222222222c7.8506666666667 0 14.222222222222 6.3431111111111 14.222222222222 14.222222222222V49.777777777778h42.666666666667c7.8506666666667 0 14.222222222222 6.3715555555556 14.222222222222 14.222222222222 C398.22222222222 71.850666666667 391.85066666667 78.222222222222 384 78.222222222222z"/><glyph unicode="&#xE002;" glyph-name="adobe21" horiz-adv-x="512" d="M421.006 153.26c-6.824 6.723 -21.957 10.283 -44.986 10.586c-15.589 0.172 -34.351 -1.201 -54.085 -3.964 c-8.837 5.099 -17.945 10.647 -25.094 17.329c-19.231 17.958 -35.284 42.886 -45.288 70.297c0.652 2.56 1.207 4.81 1.724 7.106 c0 0 10.833 61.53 7.965 82.333c-0.395 2.853 -0.637 3.681 -1.404 5.898l-0.941 2.417c-2.947 6.796 -8.724 13.997 -17.782 13.604 l-5.312 0.169l-0.146 0.003c-10.1 0 -18.332 -5.166 -20.493 -12.887c-6.569 -24.217 0.209 -60.446 12.491 -107.369l-3.144 -7.643 c-8.794 -21.438 -19.815 -43.03 -29.539 -62.079l-1.264 -2.477c-10.23 -20.02 -19.512 -37.014 -27.927 -51.411l-8.688 -4.594 c-0.632 -0.334 -15.522 -8.209 -19.014 -10.322c-29.628 -17.69 -49.261 -37.771 -52.518 -53.708c-1.036 -5.085 -0.265 -11.593 5.007 -14.606 l8.403 -4.229c3.645 -1.826 7.489 -2.751 11.427 -2.751c21.102 0 45.6 26.286 79.348 85.183c38.965 12.685 83.327 23.229 122.207 29.045 c29.629 -16.684 66.071 -28.272 89.071 -28.272c4.084 0 7.605 0.39 10.466 1.147c4.411 1.168 8.129 3.684 10.396 7.097 c4.463 6.716 5.367 15.966 4.156 25.438C425.68 147.411 423.435 150.887 421.006 153.26zM105.823 40.976 c3.848 10.521 19.08 31.322 41.602 49.778c1.416 1.148 4.904 4.416 8.097 7.451C131.971 60.643 116.199 45.672 105.823 40.976zM239.217 348.157c6.783 0 10.642 -17.097 10.962 -33.127c0.32 -16.03 -3.429 -27.28 -8.079 -35.604c-3.851 12.324 -5.713 31.75 -5.713 44.452 C236.387 323.878 236.104 348.157 239.217 348.157zM199.426 129.253c4.725 8.458 9.641 17.378 14.665 26.839 c12.246 23.158 19.979 41.278 25.739 56.173c11.455 -20.842 25.722 -38.56 42.493 -52.756c2.092 -1.771 4.309 -3.551 6.637 -5.325 C254.855 147.436 225.378 139.229 199.426 129.253zM414.452 131.174c-2.077 -1.299 -8.027 -2.05 -11.854 -2.05 c-12.353 0 -27.636 5.647 -49.062 14.833c8.233 0.609 15.781 0.919 22.55 0.919c12.391 0 16.06 0.054 28.175 -3.036 S416.529 132.473 414.452 131.174zM451.716 348.285l-71.432 71.431C364.728 435.272 334 448 312 448H72C50 448 32 430 32 408v-432 c0 -22 18 -40 40 -40h368c22 0 40 18 40 40V280C480 302 467.272 332.729 451.716 348.285zM429.089 325.657 c1.565 -1.565 3.125 -3.487 4.64 -5.657H352V401.728c2.17 -1.515 4.092 -3.075 5.657 -4.64L429.089 325.657zM448 -24c0 -4.336 -3.664 -8 -8 -8 H72c-4.336 0 -8 3.664 -8 8V408c0 4.336 3.664 8 8 8h240c2.416 0 5.127 -0.305 8 -0.852V288h127.148c0.547 -2.873 0.852 -5.583 0.852 -8V-24 z"/><glyph unicode="&#xE003;" glyph-name="box51" horiz-adv-x="512" d="M438.74133333333 448H73.258666666667L0 325.90933333333V-64h512V325.90933333333L438.74133333333 448zM452.94933333333 341.33333333333h-176.91733333333l-3.84 64h142.37866666667L452.94933333333 341.33333333333zM97.408 405.33333333333h142.35733333333l-3.84 -64H59.008 L97.408 405.33333333333zM42.666666666667 -21.333333333333V298.66666666667h426.66666666667v-320H42.666666666667zM362.66666666667 213.33333333333c0 -11.776 -9.536 -21.333333333333 -21.333333333333 -21.333333333333H170.66666666667c-11.776 0 -21.333333333333 9.5573333333333 -21.333333333333 21.333333333333s9.5573333333333 21.333333333333 21.333333333333 21.333333333333h170.66666666667C353.13066666667 234.66666666667 362.66666666667 225.10933333333 362.66666666667 213.33333333333z"/><glyph unicode="&#xE004;" glyph-name="calendar52" horiz-adv-x="757" d="M605.60131506849 364.00043835616c-7.2311232876712 7.2381369863014 -15.808876712329 10.857205479452 -25.712219178082 10.857205479452h-36.569424657534v27.430575342466c0 12.568547945205 -4.4782465753425 23.331068493151 -13.431232876712 32.284054794521 c-8.9564931506849 8.9529863013699 -19.712 13.431232876712 -32.287561643836 13.431232876712h-18.281205479452c-12.575561643836 0 -23.334575342466 -4.4782465753425 -32.287561643836 -13.431232876712c-8.9564931506849 -8.9529863013699 -13.431232876712 -19.715506849315 -13.431232876712 -32.284054794521v-27.430575342466H323.88909589041 v27.430575342466c0 12.568547945205 -4.4782465753425 23.331068493151 -13.431232876712 32.284054794521c-8.9529863013699 8.9529863013699 -19.715506849315 13.431232876712 -32.287561643836 13.431232876712h-18.284712328767c-12.572054794521 0 -23.334575342466 -4.4782465753425 -32.287561643836 -13.431232876712 c-8.9529863013699 -8.9529863013699 -13.431232876712 -19.715506849315 -13.431232876712 -32.284054794521v-27.430575342466H177.59736986301c-9.9068493150685 0 -18.477589041096 -3.6190684931507 -25.715726027397 -10.857205479452s-10.857205479452 -15.812383561644 -10.857205479452 -25.715726027397v-365.71879452055 c0 -9.8998356164384 3.6190684931507 -18.470575342466 10.857205479452 -25.712219178082c7.2381369863014 -7.2381369863014 15.808876712329 -10.857205479452 25.715726027397 -10.857205479452h402.28471232877c9.9033424657534 0 18.481095890411 3.6190684931507 25.712219178082 10.857205479452 c7.2381369863014 7.2381369863014 10.857205479452 15.812383561644 10.857205479452 25.712219178082V338.28471232877C616.45150684932 348.19156164384 612.83594520548 356.76230136986 605.60131506849 364.00043835616zM259.88208219178 -27.430575342466H177.59736986301v82.288219178082h82.284712328767 V-27.430575342466zM259.88208219178 73.142356164384H177.59736986301V164.56591780822h82.284712328767V73.142356164384zM259.88208219178 182.85764383562H177.59736986301V265.14235616438h82.284712328767V182.85764383562zM253.45753424658 313.57194520548 c-1.8095342465753 1.8095342465753 -2.714301369863 3.9487123287671 -2.714301369863 6.4280547945205V402.28471232877c0 2.4758356164384 0.90476712328767 4.6185205479452 2.714301369863 6.4280547945205c1.8095342465753 1.8095342465753 3.9487123287671 2.714301369863 6.4280547945205 2.714301369863h18.284712328767 c2.4758356164384 0 4.6185205479452 -0.90476712328767 6.4280547945205 -2.714301369863c1.8095342465753 -1.8095342465753 2.714301369863 -3.9522191780822 2.714301369863 -6.4280547945205V320c0 -2.4793424657534 -0.90827397260274 -4.6185205479452 -2.714301369863 -6.4280547945205 c-1.8095342465753 -1.8095342465753 -3.9487123287671 -2.714301369863 -6.4280547945205 -2.714301369863h-18.284712328767C257.40975342466 310.85764383562 255.26706849315 311.7624109589 253.45753424658 313.57194520548zM369.59736986301 -27.430575342466H278.16679452055v82.288219178082h91.430575342466 V-27.430575342466zM369.59736986301 73.142356164384H278.16679452055V164.56591780822h91.430575342466V73.142356164384zM369.59736986301 182.85764383562H278.16679452055V265.14235616438h91.430575342466V182.85764383562zM479.31616438356 -27.430575342466h-91.430575342466 v82.288219178082h91.430575342466V-27.430575342466zM479.31616438356 73.142356164384h-91.430575342466V164.56591780822h91.430575342466V73.142356164384zM479.31616438356 182.85764383562h-91.430575342466V265.14235616438h91.430575342466V182.85764383562zM472.88460273973 313.57194520548c-1.8060273972603 1.8095342465753 -2.7072876712329 3.9487123287671 -2.7072876712329 6.4280547945205V402.28471232877c0 2.4758356164384 0.9012602739726 4.6185205479452 2.7072876712329 6.4280547945205 c1.8095342465753 1.8095342465753 3.9522191780822 2.714301369863 6.4315616438356 2.714301369863h18.281205479452c2.4793424657534 0 4.6220273972603 -0.90476712328767 6.4315616438356 -2.714301369863c1.8095342465753 -1.8095342465753 2.7107945205479 -3.9522191780822 2.7107945205479 -6.4280547945205V320 c0 -2.4793424657534 -0.90476712328767 -4.6185205479452 -2.7107945205479 -6.4280547945205s-3.9522191780822 -2.714301369863 -6.4315616438356 -2.714301369863h-18.281205479452C476.83682191781 310.85764383562 474.69063013699 311.7624109589 472.88460273973 313.57194520548zM579.88208219178 -27.430575342466 h-82.288219178082v82.288219178082h82.288219178082V-27.430575342466zM579.88208219178 73.142356164384h-82.288219178082V164.56591780822h82.288219178082V73.142356164384zM579.88208219178 182.85764383562h-82.288219178082V265.14235616438h82.288219178082V182.85764383562z"/><glyph unicode="&#xE005;" glyph-name="chevron9" horiz-adv-x="512" d="M347.2 187.36L243.424 291.136c-6.24 6.24 -16.384 6.24 -22.624 0c-6.24 -6.24 -6.24 -16.384 0 -22.624L313.312 176L220.8 83.488 c-6.24 -6.24 -6.24 -16.384 0 -22.624c6.24 -6.24 16.384 -6.24 22.624 0l103.776 103.744c3.168 3.168 4.704 7.296 4.672 11.36 C351.872 180.128 350.336 184.224 347.2 187.36z"/><glyph unicode="&#xE006;" glyph-name="comments5" horiz-adv-x="722" d="M122.17487642748 144.61360149991c0 -7.8104653144708 0.76359297767172 -15.424578148969 1.8326231464121 -22.929606272371C54.258735299131 129.38537583092 0 188.46565536049 0 260.26521220385V308.5242883927C0 385.55991136867 62.440088631328 448 139.4757116073 448h257.96352479973 c61.02198738708 0 112.74995738878 -39.248679052327 131.68706323504 -93.834668484745H283.48934719618c-88.925856485427 0 -161.29265382649 -72.344980398841 -161.29265382649 -161.29265382649L122.17487642748 144.61360149991zM722.14078745526 -37.776035452531l-11.519345491733 -10.428498380774 c-11.410260780637 -10.341230611897 -29.256519515937 -15.795466166695 -51.597068348389 -15.795466166695c-35.36526333731 0 -86.482358956877 15.140957900119 -122.96028634737 48.826316686552H292.56519515937c-82.948014317368 0 -150.40599965911 67.457985341742 -150.40599965911 150.38418271689v48.259076188853 c0 82.948014317368 67.479802283961 150.40599965911 150.40599965911 150.40599965911h257.96352479973c82.948014317368 0 150.40599965911 -67.479802283961 150.40599965911 -150.40599965911v-48.259076188853c0 -39.750468723368 -15.991818646668 -78.061019260269 -44.135674109426 -106.20487472303 c8.9449463098688 -26.027612067496 26.289415374126 -46.011931140276 51.640702232828 -59.494801431737L722.14078745526 -37.776035452531zM277.55513891256 190.12374296915h216.90403954321v37.612408385887h-216.90403954321V190.12374296915zM578.86892790182 140.46838247827H277.55513891256v-37.590591443668h301.31378898926 V140.46838247827z"/><glyph unicode="&#xE007;" glyph-name="delete81" horiz-adv-x="512" d="M115.79648 -27.136c0 -5.655552 4.584448 -10.24 10.24 -10.24h259.92704c5.655552 0 10.24 4.584448 10.24 10.24V304.646656h-280.40704V-27.136zM313.6 248.183808h38.4v-223.246848h-38.4 V248.183808zM236.8 248.183808h38.4v-223.246848h-38.4V248.183808zM160 248.183808h38.4v-223.246848h-38.4V248.183808zM342.3104 376.621568V413.44c0 5.655552 -4.584448 10.24 -10.24 10.24h-152.1408c-5.655552 0 -10.24 -4.584448 -10.24 -10.24v-36.818432v-6.4v-6.4H98.111488 c-5.655552 0 -10.24 -4.584448 -10.24 -10.24v-25.894912c0 -5.65504 4.584448 -10.24 10.24 -10.24h17.684992h280.40704h17.684992c5.655552 0 10.24 4.58496 10.24 10.24v25.894912 c0 5.655552 -4.584448 10.24 -10.24 10.24H342.3104v6.4V376.621568zM303.9104 365.926912h-95.8208v4.295168v6.4V385.28h95.8208v-8.658432v-6.4V365.926912z"/><glyph unicode="&#xE008;" glyph-name="document115" horiz-adv-x="512" d="M367.62624 422.68672H78.34624v-461.38368h355.29728V358.67648L367.62624 422.68672zM402.93376 -7.96672H109.06624V391.96672h242.7392v-48.7424h51.11808V-7.96672zM150.34368 294.78912l46.1824 0l0 -44.01152l-40.96 0ZM207.5648 294.78912l46.19264 0l0 -44.01152l-40.96 0ZM264.92928 294.78912l46.19264 0l0 -44.01152l-40.96 0ZM149.38112 238.73536l46.1824 0l0 -44.01152l-40.96 0ZM206.60224 238.73536l46.19264 0l0 -44.01152l-40.96 0ZM263.97696 238.73536l46.19264 0l0 -44.01152l-40.96 0ZM149.79072 185.9584l46.1824 0l0 -44.00128l-40.96 0ZM207.01184 185.9584l46.19264 0l0 -44.00128l-40.96 0ZM264.38656 185.9584l46.1824 0l0 -44.00128l-40.96 0ZM320.26624 295.24992l46.19264 0l0 -44.01152l-40.96 0ZM319.31392 239.19616l46.19264 0l0 -44.01152l-40.96 0ZM319.72352 186.4192l46.1824 0l0 -44.00128l-40.96 0ZM150.34368 132.7616l46.1824 0l0 -44.02176l-40.96 0ZM207.5648 132.7616l46.19264 0l0 -44.02176l-40.96 0ZM264.93952 132.7616l46.19264 0l0 -44.02176l-40.96 0ZM150.75328 79.98464l46.1824 0l0 -44.01152l-40.96 0ZM207.9744 79.98464l46.19264 0l0 -44.01152l-40.96 0ZM320.26624 133.2224l46.19264 0l0 -44.02176l-40.96 0ZM151.7056 352.512l112.5376 0l0 -12.29824l-102.4 0ZM151.7056 329.216l112.5376 0l0 -12.29824l-102.4 0Z"/><glyph unicode="&#xE009;" glyph-name="documents4" horiz-adv-x="512" d="M109.92128 306.36544c-11.06432 0 -20.07552 -9.02144 -20.07552 -20.08064v-287.2832c0 -11.07456 9.0112 -20.08064 20.07552 -20.08064h201.86624 c11.07968 0 20.07552 9.00608 20.07552 20.08064V244.27008L274.71872 306.36544H109.92128zM315.008 -0.99839999999997c0 -1.77152 -1.44896 -3.22048 -3.22048 -3.22048H109.92128 c-1.77152 0 -3.21536 1.44896 -3.21536 3.22048v287.2832c0 1.77152 1.44384 3.21024 3.21536 3.21024h152.67328v-48.83968c0 -4.64896 3.7888 -8.41728 8.43776 -8.41728h43.97568 V-0.99839999999997zM279.45984 276.31616l25.05216 -27.22304h-25.05216V276.31616zM365.01504 405.07392H200.20736c-11.06432 0 -20.0704 -9.01632 -20.0704 -20.08064v-58.45504h16.86016V384.99328 c0 1.77664 1.43872 3.21024 3.21024 3.21024h152.67328v-48.83456c0 -4.64896 3.7888 -8.41728 8.43264 -8.41728h43.97568v-233.2416c0 -1.77664 -1.44896 -3.2256 -3.21536 -3.2256h-47.67744 v-16.86016h47.67744c11.07456 0 20.07552 9.00608 20.07552 20.08576V342.98368L365.01504 405.07392zM369.74592 347.80672v27.21792l25.05216 -27.21792H369.74592z"/><glyph unicode="&#xE00A;" glyph-name="double126" horiz-adv-x="512" d="M384 298.66666666667l-29.866666666667 29.866666666667l-134.4 -134.4l29.866666666667 -29.866666666667L384 298.66666666667zM473.6 328.53333333333L249.6 102.4L160 192l-29.866666666667 -29.866666666667l119.46666666667 -119.46666666667l256 256L473.6 328.53333333333zM8.5333333333333 162.13333333333L128 42.666666666667l29.866666666667 29.866666666667L38.4 192L8.5333333333333 162.13333333333z"/><glyph unicode="&#xE00B;" glyph-name="drop25" horiz-adv-x="512" d="M149.33333333333 234.66666666667L256 128L362.66666666667 234.66666666667Z"/><glyph unicode="&#xE00C;" glyph-name="drop27" horiz-adv-x="512" d="M149.33333333333 149.33333333333L256 256L362.66666666667 149.33333333333Z"/><glyph unicode="&#xE00D;" glyph-name="edit22" horiz-adv-x="512" d="M224 80c0 79.568 64.432 144 144 144c79.536 0 143.968 -64.432 144 -144c-0.032 -79.536 -64.464 -143.968 -144 -144C288.432 -63.968 224 0.464 224 80zM257.856 80c0.128 -60.784 49.328 -109.984 110.144 -110.128c60.784 0.144 109.984 49.344 110.128 110.128c-0.144 60.816 -49.344 110.016 -110.128 110.16 C307.184 190.016 257.984 140.816 257.856 80zM352 16h-48v48L352 16zM448 112l-80 -80l-48 48.016l80 80L448 112z"/><glyph unicode="&#xE00E;" glyph-name="hammer26" horiz-adv-x="562" d="M309.98053136207 -53.282588011418c0 -5.8833345531728 -5.2837590573081 -10.717411988582 -11.841616043329 -10.717411988582H120.85193588524c-6.5953304545122 0 -11.916562980312 4.8340774354095 -11.916562980312 10.717411988582v80.792798067774 c0 5.9582814901559 5.3587059942912 10.717411988582 11.916562980312 10.717411988582h177.28697943351c6.5953304545122 0 11.841616043329 -4.7591304984264 11.841616043329 -10.717411988582V-53.282588011418zM562.1020273732 27.472736587865c0 5.9208080216643 -5.3587059942912 10.717411988582 -11.954036448803 10.717411988582H372.86101149089 c-6.6328039230037 0 -11.954036448803 -4.796603966918 -11.954036448803 -10.717411988582v-80.792798067774c0 -5.8833345531728 5.3587059942912 -10.679938520091 11.954036448803 -10.679938520091h177.24950596502c6.6328039230037 0 11.954036448803 4.796603966918 11.954036448803 10.679938520091V27.472736587865zM436.07875283613 180.62680231282c0 5.9208080216643 -5.3587059942912 10.717411988582 -11.954036448803 10.717411988582H246.80026348533c-6.5203835175291 0 -11.916562980312 -4.796603966918 -11.916562980312 -10.717411988582v-80.792798067774c0 -5.8833345531728 5.4336529312742 -10.754885457074 11.916562980312 -10.754885457074 h177.28697943351c6.6328039230037 0 11.954036448803 4.8340774354095 11.954036448803 10.754885457074V180.62680231282zM252.72107150699 271.79975115275L252.72107150699 271.79975115275c5.8083876161897 -4.0846080655786 13.827709873381 -2.6606162628998 17.987264875942 3.222718290273l40.47134597087 58.15882309888 c4.0846080655786 5.8083876161897 2.6606162628998 13.902656810364 -3.1477713532899 17.987264875942l0 0l-12.516138476177 8.6188977530557L240.61714118422 280.23128156335L252.72107150699 271.79975115275zM0 152.07201932226C7.7944814462417 135.4712727805 25.257117763302 124.15428529606 42.457439800922 122.24313840299 l107.39896069677 153.19153919344L107.24906682281 305.2635585157L0 152.07201932226zM228.62563126693 302.79030959526C229.37510063676 301.74105247749 230.0870965381 300.69179535973 230.72414550245 299.56759130498C231.21130059284 298.70570152968 231.66098221474 297.88128522286 232.03571689966 297.13181585303 c0.71199590133938 -1.648832613628 1.4614652711703 -3.2601917587645 1.8361999560858 -4.8340774354095c15.813803703433 22.633974968894 31.702554343848 45.230476469297 47.553831515773 67.826977969699c0 0 -36.986313401156 -4.4968162189856 -56.397570079777 39.534509258582 c-3.9721876601039 2.810510136866 -8.1692161311571 5.621020273732 -12.141403791261 8.4690038790895C157.08877991656 447.1006367562 104.1762424065 455.04501207641 58.083876161897 442.52887360023C55.535680304472 441.81687769889 50.551708995096 440.16804508527 45.979945839128 438.63163287711 C37.885676644954 435.89606967723 39.309668447632 423.604772012 48.378247822587 425.06623728317c4.2719754080363 0.74946936983093 8.6188977530557 1.4614652711703 10.754885457074 1.573885676645c8.7687916270219 0.37473468491547 17.20032203762 0.97431018078021 25.969113664642 -0.63704896435629 C122.53824196736 418.80816804509 151.91744126473 384.74478518627 127.37231940277 349.74456561517C120.77698894825 340.37619849228 107.54885457074 321.93925199444 107.6987484447 321.71441118349C107.77369538169 321.56451730952 163.42179609163 283.1167386372 163.15948181219 282.70453048379 c-1.573885676645 -2.2484081094928 3.7848203176462 4.9839713093757 5.5085998682573 7.1949059503769c8.2441630681402 9.668154870819 25.631852448218 26.193954475591 47.029202956891 21.847032130572c3.3351386957476 -0.71199590133938 6.1456488326136 -2.2484081094928 8.4690038790895 -4.1595550025617 c1.1242040547464 -1.0117836492718 2.3233550464759 -2.0610407670351 3.2976652272561 -3.2601917587645C227.91363536559 303.83956671302 228.25089658201 303.31493815414 228.62563126693 302.79030959526z"/><glyph unicode="&#xE00F;" glyph-name="list89" horiz-adv-x="512" d="M64 170.66666666667h42.666666666667v42.666666666667H64V170.66666666667zM64 85.333333333333h42.666666666667v42.666666666667H64V85.333333333333zM64 256h42.666666666667V298.66666666667H64V256zM149.33333333333 170.66666666667h298.66666666667v42.666666666667H149.33333333333V170.66666666667zM149.33333333333 85.333333333333h298.66666666667v42.666666666667H149.33333333333V85.333333333333zM149.33333333333 298.66666666667v-42.666666666667h298.66666666667V298.66666666667H149.33333333333z"/><glyph unicode="&#xE010;" glyph-name="location4" horiz-adv-x="512" d="M256.032 164.064c52.944 0 96 43.072 96 96s-43.056 96 -96 96 c-52.944 0 -96 -43.056 -96 -96S203.088 164.064 256.032 164.064zM256.032 340.064c44.128 0 80 -35.872 80 -80s-35.872 -80 -80 -80c-44.128 0 -80 35.872 -80 80 S211.904 340.064 256.032 340.064zM256 448C150.112 448 64 362.944 64 255.984c0 -112 96.016 -226.576 166.016 -307.104 C230.272 -51.44 241.504 -64 255.392 -64c0.032 0 1.168 0 1.232 0c13.872 0 25.12 12.56 25.376 12.88 c70.032 80.528 166.032 195.088 166.032 307.104C448.032 362.944 361.904 448 256 448zM257.872 -30.128c-0.336 -0.32 -1.312 -1.024 -2.16 -1.568 c-0.16 0.432 -1.344 1.376 -2.064 2.128C195.008 37.904 96 151.776 96 255.984C96 344.208 167.792 416 256 416c88.256 0 160.032 -71.792 160.032 -160.032 C416.032 151.776 317.024 37.904 257.872 -30.128z"/><glyph unicode="&#xE011;" glyph-name="magnifying49" horiz-adv-x="512" d="M403.3024 80.87552l-68.79232 68.79232c-3.6352 3.64544 -8.12032 5.92896 -12.82048 6.912c19.4048 27.904 25.66144 62.14656 18.95424 94.208l-28.0576 -27.52512 c-0.60416 -22.34368 -9.3184 -44.51328 -26.32704 -61.52192c-35.26656 -35.25632 -92.65152 -35.25632 -127.91808 0c-35.26656 35.26656 -35.26656 92.65152 0 127.91808 c35.26656 35.26656 92.65152 35.26656 127.91808 0c5.0176 -5.0176 9.23648 -10.51648 12.82048 -16.30208l-64.95232 -63.71328l-52.50048 50.29888 c-6.12352 5.87776 -15.84128 5.67296 -21.71904 -0.4608c-5.86752 -6.12352 -5.66272 -15.85152 0.4608 -21.71904l63.25248 -60.60032c2.9696 -2.83648 6.79936 -4.25984 10.62912 -4.25984 c3.88096 0 7.77216 1.46432 10.752 4.38272l126.17728 123.76064c6.05184 5.9392 6.15424 15.6672 0.21504 21.71904c-5.92896 6.05184 -15.64672 6.15424 -21.7088 0.21504 l-28.29312 -27.74016c-3.9424 5.66272 -8.3456 11.10016 -13.40416 16.14848c-47.24736 47.24736 -124.11904 47.24736 -171.35616 0s-47.24736 -124.11904 0 -171.35616 c42.06592 -42.05568 107.5712 -46.56128 154.78784 -13.7216c0.99328 -4.70016 3.26656 -9.17504 6.92224 -12.83072l68.78208 -68.78208c10.01472 -10.01472 26.2144 -10.01472 36.20864 0 C413.30688 54.6816 413.30688 70.88128 403.3024 80.87552z"/><glyph unicode="&#xE012;" glyph-name="menu9" horiz-adv-x="512" d="M400 224h-288C103.168 224 96 216.832 96 208S103.168 192 112 192h288C408.8 192 416 199.168 416 208S408.8 224 400 224zM112 288h288C408.8 288 416 295.168 416 304S408.8 320 400 320h-288C103.168 320 96 312.832 96 304S103.168 288 112 288zM400 128h-288C103.168 128 96 120.8 96 112S103.168 96 112 96h288c8.8 0 16 7.2 16 16S408.8 128 400 128z"/><glyph unicode="&#xE013;" glyph-name="minus24" horiz-adv-x="512" d="M404.20352 220.16v-56.32c0 -4.23936 -3.43552 -7.68 -7.68 -7.68H116.6336c-4.24448 0 -7.68 3.44064 -7.68 7.68v56.32c0 4.23936 3.43552 7.68 7.68 7.68h279.88992 C400.768 227.84 404.20352 224.39936 404.20352 220.16z"/><glyph unicode="&#xE014;" glyph-name="money57" horiz-adv-x="512" d="M264.99072 204.63616l-44.15488 45.86496l-106.19904 -107.9296l-14.60224 14.35648L220.98944 279.8592l44.58496 -46.30528l76.6976 73.44128l-21.9648 21.9648h57.36448v-57.35424 l-20.91008 20.91008L264.99072 204.63616zM150.84544 55.04h69.12v97.28h-69.12V55.04zM246.84544 55.04h69.12v128h-69.12V55.04zM342.84544 247.04 v-192h69.12v192H342.84544z"/><glyph unicode="&#xE015;" glyph-name="open131" horiz-adv-x="512" d="M503.6544 133.79584L415.03744 -33.90976c-4.33664 -8.3456 -16.62464 -17.16224 -26.11712 -17.16224L33.55648 -51.13856 c-7.50592 0 -14.70464 2.97984 -20.00896 8.28416c-5.30432 5.30944 -8.28416 12.50304 -8.28416 20.00896l0.05632 275.94752c0 15.60576 12.65152 28.26752 28.25728 28.28288l25.984 0.0256 v-24.10496H42.17856c-3.4048 0 -6.67136 -1.35168 -9.07776 -3.75808s-3.75808 -5.67296 -3.75808 -9.07776l0.0256 -258.67776c0 -7.0912 5.74976 -12.83584 12.83584 -12.83584h17.80224 L143.98976 142.848c4.74624 9.49248 13.71136 17.15712 23.18848 17.15712h205.67552l0.06656 68.37248c13.43488 -1.24416 24.03328 -12.38528 24.03328 -26.13248v-42.24h94.33088 C502.4256 159.89248 511.80032 148.87936 503.6544 133.79584zM75.94496 58.48064c-0.768 84.56192 0 338.26304 0 338.26304c0 12.8 10.40896 23.20384 23.19872 23.20384h185.77408 c2.97472 0 5.8112 -1.24416 7.82336 -3.43552l60.0576 -65.2544c1.80736 -1.96608 2.81088 -4.53632 2.81088 -7.20384v-169.04704H336.128V329.45664 c0 2.67264 -2.17088 4.84352 -4.84352 4.84352h-45.97248c-5.376 0 -9.7536 4.36736 -9.7536 9.73824V395.61728c0 2.67264 -2.17088 4.84352 -4.84352 4.84352H99.15392 c-2.048 0 -3.71712 -1.66912 -3.71712 -3.71712v-316.99968l-14.90944 -30.16192C80.52736 49.5872 76.02176 49.91488 75.94496 58.48064zM295.0656 353.77664h28.93824l-28.93824 31.45728 V353.77664zM305.61792 314.45504H126.06976c-6.61504 0 -11.98592 -5.376 -11.98592 -11.99104c0 -6.60992 5.376 -11.98592 11.98592 -11.98592h179.55328 c6.61504 0 11.99616 5.38112 11.99616 11.98592C317.61408 309.07392 312.22784 314.45504 305.61792 314.45504zM317.61408 232.64768c0 6.60992 -5.38112 11.9808 -11.99616 11.9808H126.06976 c-6.61504 0 -11.98592 -5.38112 -11.98592 -11.9808c0 -6.60992 5.376 -11.9808 11.98592 -11.9808h179.55328C312.22784 220.66688 317.61408 226.03776 317.61408 232.64768zM114.07872 162.3552 c0 -6.60992 5.376 -11.97568 11.98592 -11.97568h4.30592c7.5776 21.11488 26.36288 23.9616 26.36288 23.9616h-30.6688C119.46496 174.34112 114.07872 168.97024 114.07872 162.3552z"/><glyph unicode="&#xE016;" glyph-name="pencil113" horiz-adv-x="474" d="M467.14306002256 146.26089135792l-38.596215696922 38.596215696922c-5.2609331272712 5.2609331272712 -11.024435069546 7.7684307255336 -17.793074641828 7.7684307255336c-5.7635019422748 0 -10.987009732258 -2.2936385280481 -15.536861451067 -6.7686395722819l-30.822438494633 -30.325216156384 L241.33996073681 32.482519527171c-2.2562131907606 -2.7587820057642 -3.4110521699177 -5.0363811035462 -3.7585731590159 -6.2660707572783L217.0295309302 -46.709494173176c-0.42771814042855 -1.5237458752767 -0.74850674574997 -3.0047199365106 -0.74850674574997 -4.5124263815212 c0 -6.2660707572783 6.0147863497765 -12.783425922058 13.78321707531 -12.783425922058c1.7536443757571 0 3.0154128900213 0.21385907021428 4.0098575665177 0.50256881500355l72.42872060482 21.054425462596c2.4540328307088 0.71108140846247 4.5070799047659 1.5077064450107 6.0147863497765 3.0047199365106l123.80301574704 123.55173133954 l30.319869679629 30.325216156384c4.0098575665177 4.0098575665177 6.2660707572783 9.0248527630425 7.0199239797836 15.034292636064C473.66041518734 136.23624744163 471.40420199657 141.9997493839 467.14306002256 146.26089135792zM295.7243222923 -17.389415646798l-45.61079319995 -12.783425922058 l13.280648260307 45.61079319995l110.77365189424 110.77365189424l32.827367277891 -32.330144939643L295.7243222923 -17.389415646798zM426.54191554238 113.43352408003l-32.827367277891 32.330144939643l17.541790234326 17.541790234326l32.330144939643 -32.330144939643L426.54191554238 113.43352408003zM277.67996324297 206.91132367069H62.152792281024c-7.7684307255336 0 -13.78321707531 -6.0147863497765 -13.78321707531 -13.78321707531c0 -7.7684307255336 6.0147863497765 -14.034501482812 13.78321707531 -14.034501482812h215.52717096195 c7.7684307255336 0 13.78321707531 6.2660707572783 13.78321707531 14.034501482812C291.46318031828 200.89653732091 285.44839396851 206.91132367069 277.67996324297 206.91132367069zM291.46318031828 130.97531431436c0 7.7684307255336 -6.0147863497765 13.78321707531 -13.78321707531 13.78321707531H62.152792281024c-7.7684307255336 0 -13.78321707531 -6.0147863497765 -13.78321707531 -13.78321707531c0 -7.7684307255336 6.0147863497765 -14.034501482812 13.78321707531 -14.034501482812 h215.52717096195C285.44839396851 116.94081283154 291.46318031828 123.20688358882 291.46318031828 130.97531431436zM162.14794703646 83.108307923646H62.152792281024c-7.7684307255336 0 -13.78321707531 -6.0147863497765 -13.78321707531 -13.78321707531c0 -7.7684307255336 6.0147863497765 -13.78321707531 13.78321707531 -13.78321707531h99.99515475544 c7.7684307255336 0 14.034501482812 6.0147863497765 14.034501482812 13.78321707531C176.18244851928 77.093521573869 169.916377762 83.108307923646 162.14794703646 83.108307923646zM162.14794703646 20.955515642621H62.152792281024c-7.7684307255336 0 -13.78321707531 -6.0147863497765 -13.78321707531 -13.78321707531s6.0147863497765 -13.78321707531 13.78321707531 -13.78321707531h99.99515475544c7.7684307255336 0 14.034501482812 6.0147863497765 14.034501482812 13.78321707531 S169.916377762 20.955515642621 162.14794703646 20.955515642621zM27.817718558122 -33.926068251117V417.92606825112c0 1.7536443757571 0.75385322250533 2.5074975982624 2.5074975982624 2.5074975982624h102.7539367612V271.56626707322c0 -17.044567896078 13.029363852805 -30.827784971388 30.068585272127 -30.827784971388h148.86729877616v-84.207008896871h27.817718558122 v84.207008896871v27.817718558122h-0.50256881500355L160.64558706821 447.497431185L160.14301825321 448h-27.063865335617H30.325216156384C21.802932208346 448 14.537070297815 444.99528006349 8.7735683555407 439.22643164446C3.0047199365106 433.46292970218 0 426.19706779165 0 417.92606825112v-451.85213650223 c0 -17.044567896078 13.280648260307 -30.073931748883 30.325216156384 -30.073931748883h163.65030700472v27.56643415062H30.325216156384C28.571571780627 -36.43356584938 27.817718558122 -35.68505910363 27.817718558122 -33.926068251117zM160.64558706821 408.15270874232l139.59116160561 -139.59116160561 H163.14773818972c-1.7536443757571 0 -2.502151121507 1.0051376300071 -2.502151121507 3.0047199365106V408.15270874232z"/><glyph unicode="&#xE017;" glyph-name="pencil44" horiz-adv-x="512" d="M85.965 135.125l113.156 -113.188l271.531 271.547L357.496 406.625L85.965 135.125zM380.121 338.734 L153.871 112.5l-22.625 22.625l226.25 226.234L380.121 338.734zM470.652 429.25l22.625 -22.625c24.969 -24.984 24.969 -65.516 0 -90.516 L380.121 429.25C405.121 454.25 445.652 454.25 470.652 429.25zM167.496 8.312L-0.004 -64l72.313 167.5L167.496 8.312z"/><glyph unicode="&#xE018;" glyph-name="picture11" horiz-adv-x="512" d="M0 384v-416h512V384H0zM480 0H32V352h448V0zM352 272c0 -26.51 21.49 -48 48 -48s48 21.49 48 48s-21.49 48 -48 48 S352 298.51 352 272zM448 32H64l96 256l128 -160l64 48L448 32z"/><glyph unicode="&#xE019;" glyph-name="plus33" horiz-adv-x="512" d="M404.20352 220.16v-56.32c0 -4.23936 -3.43552 -7.68 -7.68 -7.68H292.41856v-104.10496c0 -4.24448 -3.44064 -7.68 -7.68 -7.68h-56.32c-4.23936 0 -7.68 3.43552 -7.68 7.68V156.16 H116.6336c-4.24448 0 -7.68 3.44064 -7.68 7.68v56.32c0 4.23936 3.43552 7.68 7.68 7.68h104.10496V331.94496c0 4.24448 3.44064 7.68 7.68 7.68h56.32 c4.23936 0 7.68 -3.43552 7.68 -7.68V227.84h104.10496C400.768 227.84 404.20352 224.39936 404.20352 220.16z"/><glyph unicode="&#xE01A;" glyph-name="plus38" horiz-adv-x="512" d="M370.4832 321.85344H141.5168c-8.47872 0 -15.36 -6.87104 -15.36 -15.36v-228.97664c0 -8.48896 6.88128 -15.36 15.36 -15.36h228.9664c8.47872 0 15.36 6.87104 15.36 15.36V306.49344 C385.8432 314.9824 378.96192 321.85344 370.4832 321.85344zM323.84 176.62976H271.36v-52.48c0 -8.48896 -6.88128 -15.36 -15.36 -15.36c-8.47872 0 -15.36 6.87104 -15.36 15.36v52.48 h-52.48c-8.47872 0 -15.36 6.87104 -15.36 15.36s6.88128 15.36 15.36 15.36H240.64v52.48c0 8.48896 6.88128 15.36 15.36 15.36c8.48896 0 15.36 -6.87104 15.36 -15.36v-52.48 h52.48c8.47872 0 15.36 -6.87104 15.36 -15.36S332.31872 176.62976 323.84 176.62976z"/><glyph unicode="&#xE01B;" glyph-name="profile11" horiz-adv-x="512" d="M367.497 45.312c-9.476 1.494 -9.692 27.328 -9.692 27.328s27.845 27.327 33.912 64.075 c16.326 0 26.407 39.069 10.082 52.813C402.48 204 422.783 303.118 320 303.118c-102.782 0 -82.479 -99.118 -81.799 -113.589 c-16.327 -13.744 -6.244 -52.813 10.081 -52.813c6.067 -36.748 33.913 -64.075 33.913 -64.075s-0.217 -25.834 -9.692 -27.328 C241.979 40.497 128 -9.345 128 -64h192h192C512 -9.345 398.021 40.497 367.497 45.312zM172.027 36.595 c22.047 13.575 48.813 26.154 70.769 33.712c-7.876 11.217 -16.647 26.469 -22.165 44.531c-7.703 6.283 -13.972 15.266 -17.999 26.301 c-4.033 11.053 -5.561 23.426 -4.304 34.842c0.902 8.197 3.239 15.833 6.825 22.544c-2.175 23.293 -3.707 69.017 26.224 102.366 c11.607 12.933 26.277 22.23 43.85 27.843c-3.137 32.38 -19.58 70.385 -83.227 70.385c-102.782 0 -82.479 -99.118 -81.799 -113.588 c-16.327 -13.745 -6.244 -52.814 10.081 -52.814c6.067 -36.748 33.913 -64.076 33.913 -64.076s-0.216 -25.832 -9.692 -27.326 C113.979 136.497 0 86.654 0 32h164.798C167.153 33.537 169.551 35.07 172.027 36.595z"/><glyph unicode="&#xE01C;" glyph-name="profile7" horiz-adv-x="512" d="M256 96c79.408 0 144 78.976 144 176C400 369.024 335.392 448 256 448c-39.152 0 -75.744 -18.784 -103.008 -52.88C126.544 362.08 112 318.336 112 271.984 C112 174.96 176.592 96 256 96zM256 415.984c61.744 0 112 -64.592 112 -144c0 -79.392 -50.256 -144 -112 -144c-61.744 0 -112 64.608 -112.016 144 C143.984 351.392 194.24 415.984 256 415.984zM368 128c-8.848 0 -16 -7.152 -16 -16s7.152 -16 16 -16c61.744 0 112 -50.256 112 -112c0 -8.816 -7.184 -16 -16 -16H48 c-8.816 0 -16 7.184 -16 16c0 61.744 50.256 112 112 112c8.848 0 16 7.152 16 16s-7.152 16 -16 16c-79.408 0 -144 -64.592 -144 -144c0 -26.464 21.536 -48 48 -48h416 c26.464 0 48 21.536 48 48C512 63.392 447.408 128 368 128z"/><glyph unicode="&#xE01D;" glyph-name="radio51" horiz-adv-x="512" d="M256 298.66666666667c-59.733333333333 0 -106.66666666667 -46.933333333333 -106.66666666667 -106.66666666667s46.933333333333 -106.66666666667 106.66666666667 -106.66666666667c59.733333333333 0 106.66666666667 46.933333333333 106.66666666667 106.66666666667S315.73333333333 298.66666666667 256 298.66666666667zM256 405.33333333333C138.66666666667 405.33333333333 42.666666666667 309.33333333333 42.666666666667 192s96 -213.33333333333 213.33333333333 -213.33333333333c117.33333333333 0 213.33333333333 96 213.33333333333 213.33333333333S373.33333333333 405.33333333333 256 405.33333333333zM256 21.333333333333c-93.866666666667 0 -170.66666666667 76.8 -170.66666666667 170.66666666667s76.8 170.66666666667 170.66666666667 170.66666666667c93.866666666667 0 170.66666666667 -76.8 170.66666666667 -170.66666666667S349.86666666667 21.333333333333 256 21.333333333333z"/><glyph unicode="&#xE01E;" glyph-name="search100" horiz-adv-x="512" d="M330.66666666667 149.33333333333h-17.066666666667l-6.4 6.4c21.333333333333 23.466666666667 34.133333333333 55.466666666667 34.133333333333 89.6C341.33333333333 322.13333333333 279.46666666667 384 202.66666666667 384C125.86666666667 384 64 322.13333333333 64 245.33333333333S125.86666666667 106.66666666667 202.66666666667 106.66666666667c34.133333333333 0 66.133333333333 12.8 89.6 34.133333333333l6.4 -6.4v-17.066666666667l106.66666666667 -106.66666666667l32 32L330.66666666667 149.33333333333zM202.66666666667 149.33333333333C149.33333333333 149.33333333333 106.66666666667 192 106.66666666667 245.33333333333S149.33333333333 341.33333333333 202.66666666667 341.33333333333C256 341.33333333333 298.66666666667 298.66666666667 298.66666666667 245.33333333333S256 149.33333333333 202.66666666667 149.33333333333z"/><glyph unicode="&#xE01F;" glyph-name="seo2" horiz-adv-x="446" d="M385.27972538082 448H0V-11.822355717657h385.27972538082V448zM362.12383608668 11.333533576486c-21.002874919545 0 -317.94310233855 0 -338.96794679253 0c0 21.376357004935 0 392.17815919331 0 413.48860759494 c21.046813988415 0 317.96507187299 0 338.96794679253 0C362.12383608668 403.48972323536 362.12383608668 32.687921046986 362.12383608668 11.333533576486zM63.579832653937 373.32555245655l263.37077880283 0l0 -24.298305084746l-241.66487878138 0ZM63.579832653937 296.76172495173l263.37077880283 0l0 -24.276335550311l-241.66487878138 0ZM401.14172924265 395.88826432096L401.14172924265 372.71040549238L422.95747693628 372.71040549238L422.95747693628 -40.756232568118L83.967560609311 -40.756232568118L83.967560609311 -24.696502896374L60.767732246299 -24.696502896374L60.767732246299 -63.978030465565L446.15730529929 -63.978030465565L446.15730529929 395.88826432096ZM73.422184080669 116.63351212186c4.5696631624115 0 8.7438747049989 1.2962025316456 12.588543231066 3.1855824930272l33.042179789745 -27.022527354645c-0.17575627547737 -1.2742329972109 -0.7469641707788 -2.3727097189444 -0.7469641707788 -3.6908817850247 c0 -15.99382106844 12.962025316456 -28.933876850461 28.933876850461 -28.933876850461s28.933876850461 12.962025316456 28.933876850461 28.933876850461c0 4.5916326968462 -1.3181720660802 8.7658442394336 -3.2075520274619 12.632482299936c15.883973396267 23.814975327183 36.161853679468 54.264750053637 48.332975756275 72.521433168848 c1.867410426947 -0.39545161982407 3.6249731817207 -1.1424157906029 5.602231280841 -1.1424157906029c6.9423728813559 0 13.071872988629 2.7681613387685 18.058957305299 6.8544947436172c10.874919545162 -6.3491954516198 25.001330186655 -14.587770864621 37.172452263463 -21.68393048702 c-0.021969534434671 -0.41742115425874 -0.24166487878138 -0.72499463634413 -0.24166487878138 -1.1424157906029c0 -15.99382106844 12.962025316456 -28.933876850461 28.933876850461 -28.933876850461s28.911907316027 12.962025316456 28.911907316027 28.933876850461s-12.940055782021 28.933876850461 -28.911907316027 28.933876850461 c-7.074190087964 0 -13.31353786741 -2.8340699420725 -18.366530787385 -7.0522205535293l-36.974726453551 21.574082814847c0.021969534434671 0.48332975756275 0.28560394765072 0.9007509118215 0.28560394765072 1.3840806693843c0 15.971851534006 -12.940055782021 28.889937781592 -28.889937781592 28.889937781592 s-28.867968247157 -12.940055782021 -28.867968247157 -28.889937781592c0 -5.3605664020596 1.8454408925123 -10.084016305514 4.3719373524995 -14.390045054709c-15.180948294357 -22.804376743188 -34.99746835443 -52.529156833298 -47.410255310019 -71.181291568333 C152.46856897661 117.16078094829 149.9860115855 118.01759279125 147.23981978116 118.01759279125c-5.9757133662304 0 -11.226432096117 -2.2628620467711 -15.840034327398 -5.3605664020596c-9.1612958592577 7.5135807766574 -20.497575627548 16.784724308088 -30.625531001931 25.067238789959 c0.72499463634413 2.5484659944218 1.5818064792963 5.0529929199743 1.5818064792963 7.8211542587428c0 16.015790602875 -13.02793391976 28.933876850461 -28.933876850461 28.911907316027c-16.015790602875 0 -28.955846384896 -12.918086247586 -28.955846384896 -28.911907316027 C44.444368161339 129.59553743832 57.38442394336 116.63351212186 73.422184080669 116.63351212186z"/><glyph unicode="&#xE020;" glyph-name="simple30" horiz-adv-x="512" d="M230.688 176L323.2 268.512c6.24 6.24 6.24 16.384 0 22.624c-6.24 6.24 -16.384 6.24 -22.624 0L196.8 187.36 C193.664 184.224 192.128 180.128 192.128 176S193.664 167.776 196.8 164.64l103.776 -103.744c6.24 -6.24 16.384 -6.24 22.624 0s6.24 16.384 0 22.624 L230.688 176z"/><glyph unicode="&#xE021;" glyph-name="simple31" horiz-adv-x="512" d="M387.136 227.2c-6.24 6.24 -16.384 6.24 -22.624 0L272 134.688L179.488 227.2c-6.24 6.24 -16.384 6.24 -22.624 0 c-6.24 -6.24 -6.24 -16.384 0 -22.624l103.776 -103.776c3.136 -3.168 7.264 -4.704 11.36 -4.672c4.128 0 8.224 1.536 11.36 4.672l103.744 103.776 C393.376 210.816 393.376 220.96 387.136 227.2z"/><glyph unicode="&#xE022;" glyph-name="small58" horiz-adv-x="512" d="M469.344 400H400V432c0 8.848 -7.152 16 -16 16s-16 -7.152 -16 -16v-32h-96V432c0 8.848 -7.168 16 -16 16s-16 -7.152 -16 -16v-32H144V432 c0 8.848 -7.168 16 -16 16S112 440.848 112 432v-32H42.672C19.104 400 0 380.912 0 357.344v-378.672C0 -44.896 19.104 -64 42.672 -64h426.672 C492.912 -64 512 -44.896 512 -21.328V357.344C512 380.912 492.912 400 469.344 400zM480 -21.328C480 -27.216 475.216 -32 469.344 -32H42.672 C36.784 -32 32 -27.216 32 -21.328V357.344C32 363.216 36.784 368 42.672 368H112v-32c0 -8.848 7.168 -16 16 -16s16 7.152 16 16V368h96v-32c0 -8.848 7.168 -16 16 -16 s16 7.152 16 16V368h96v-32c0 -8.848 7.152 -16 16 -16s16 7.152 16 16V368h69.344C475.216 368 480 363.216 480 357.344V-21.328zM112 256l64 0l0 -48l-64 0ZM112 176l64 0l0 -48l-64 0ZM112 96l64 0l0 -48l-64 0ZM224 96l64 0l0 -48l-64 0ZM224 176l64 0l0 -48l-64 0ZM224 256l64 0l0 -48l-64 0ZM336 96l64 0l0 -48l-64 0ZM336 176l64 0l0 -48l-64 0ZM336 256l64 0l0 -48l-64 0Z"/><glyph unicode="&#xE023;" glyph-name="text151" horiz-adv-x="384" d="M265.91140378384 448H238.31253266437H135.96604996342c-8.2791261628515 0 -15.616347862444 -2.9434514476848 -21.578174976482 -8.7768370440054c-5.8280338664158 -5.7102958085084 -8.7768370440054 -12.795986202571 -8.7768370440054 -21.326643670952v-48.914811330616h27.845050695098v48.914811330616 c0 1.760719138706 0.75459391658827 2.5099613253894 2.5099613253894 2.5099613253894H238.31253266437v-112.63250757813c0 -8.2791261628515 2.8845824187311 -15.680568621302 8.7821887739103 -21.578174976482c5.8976063551793 -5.8922546252744 13.293697083725 -8.7768370440054 21.572823246577 -8.7768370440054h87.800480819484v-214.23509982231 c0 -1.7553674088011 -0.74924218668339 -2.5099613253894 -2.5046095954845 -2.5099613253894h-56.193164001254v-27.593519389568h56.193164001254c17.055963206857 0 30.098128985053 13.047517508101 30.098128985053 30.103480714958V277.41896101181v27.341988084039v0.50306261105885L265.91140378384 448zM268.66754468485 305.26401170691 c-1.0007734922128 0 -2.7561409010139 1.5038361032717 -2.7561409010139 2.5099613253894V404.35129089579l81.779784676492 -99.087279188878H268.66754468485zM160.29501411101 350.91961952545v0.50306261105885h-27.845050695098H30.103480714958c-8.2791261628515 0 -15.55747883349 -3.0130239364482 -21.326643670952 -9.0337200794397S0 329.09526497335 0 320.56460750497v-354.46112679001 c0 -8.5306574683809 3.0076722065433 -15.55747883349 8.7768370440054 -21.326643670952s13.047517508101 -8.7768370440054 21.326643670952 -8.7768370440054h217.99201421553c17.061314936762 0 30.355012020487 13.042165778196 30.355012020487 30.103480714958V180.83629141842v27.341988084039l-0.49771088115397 0.50306261105885 L160.29501411101 350.91961952545zM160.29501411101 307.27091042124l81.533605100868 -98.589568307724H162.8049754364c-1.7553674088011 0 -2.5099613253894 0.75459391658827 -2.5099613253894 2.5099613253894V307.27091042124zM250.60545625588 -33.896519285042 c0 -1.760719138706 -0.74924218668339 -2.5099613253894 -2.5099613253894 -2.5099613253894H30.103480714958c-1.7553674088011 0 -2.5099613253894 0.74924218668339 -2.5099613253894 2.5099613253894V320.56460750497c0 1.7553674088011 0.75459391658827 2.7614926309188 2.5099613253894 2.7614926309188h102.34648270095v-112.13479669698 c0 -8.5306574683809 2.9488031775896 -15.867879167973 8.7821887739103 -21.572823246577c5.9618271140378 -5.8333855963207 13.293697083725 -8.7821887739103 21.572823246577 -8.7821887739103h87.800480819484V-33.896519285042zM45.655607818543 131.66994878227c0 -7.7760635517926 6.0206961429915 -13.796759694784 13.796759694784 -13.796759694784h159.29424061879c7.7760635517926 0 13.796759694784 6.0206961429915 13.796759694784 13.796759694784s-6.0206961429915 13.796759694784 -13.796759694784 13.796759694784H59.452367513327 C51.676303961534 145.46670847706 45.655607818543 139.44601233407 45.655607818543 131.66994878227zM218.74660813212 87.015114455942H59.452367513327c-7.7760635517926 0 -13.796759694784 -6.272227448521 -13.796759694784 -14.048291000314c0 -7.2730009407338 6.0206961429915 -13.796759694784 13.796759694784 -13.796759694784h159.29424061879 c7.7760635517926 0 13.796759694784 6.5237587540504 13.796759694784 13.796759694784C232.5433678269 80.742887007421 226.52267168391 87.015114455942 218.74660813212 87.015114455942zM218.74660813212 28.815051740358H59.452367513327c-7.7760635517926 0 -13.796759694784 -6.0206961429915 -13.796759694784 -13.796759694784s6.0206961429915 -13.796759694784 13.796759694784 -13.796759694784h159.29424061879c7.7760635517926 0 13.796759694784 6.0206961429915 13.796759694784 13.796759694784 S226.52267168391 28.815051740358 218.74660813212 28.815051740358z"/><glyph unicode="&#xE024;" glyph-name="verified10" horiz-adv-x="512" d="M383.66679365079 20.463746031746L54.024126984127 20.463746031746L54.024126984127 350.11047619048L362.13434920635 350.11047619048L412.49726984127 400.4733968254L3.6530793650794 400.4733968254L3.6530793650794 -29.903238095238L434.03377777778 -29.903238095238L434.03377777778 258.41371428571L383.66679365079 208.05079365079ZM176.07517460317 299.42653968254L122.77434920635 246.11352380952L258.32025396825 110.56761904762L508.34692063492 360.59428571429L455.03796825397 413.90323809524L258.32025396825 217.18552380952Z"/></font>
</defs>
</svg>
